<svg id="Capa_1" enable-background="new 0 0 501 501" height="512" viewBox="0 0 501 501" width="512" xmlns="http://www.w3.org/2000/svg"><g><path d="m16.793 339.824c-10.841-27.677-16.793-57.805-16.793-89.324 0-135.31 109.69-245 245-245s245 109.69 245 245c0 31.519-5.952 61.647-16.793 89.324z" fill="#05a2f9"/><path d="m481.556 314.5c-26.425 97.911-112.017 171.535-216.055 180.154 0-44.359-35.96-80.319-80.319-80.319h-122.346c-25.332-28.148-44.234-62.197-54.392-99.835z" fill="#0266eb"/><path d="m492.801 127.169c0 32.22-61.474 58.34-137.305 58.34s-137.305-26.12-137.305-58.34 61.474-58.34 137.305-58.34 137.305 26.12 137.305 58.34z" fill="#a62b2b"/><path d="m492.801 127.169c0 26.915-42.895 49.572-101.223 56.304-58.327-6.732-101.222-29.39-101.222-56.304s42.895-49.572 101.222-56.304c58.328 6.732 101.223 29.39 101.223 56.304z" fill="#c64b1a"/><path d="m410.356 133.83c0 8.284-6.716 15-15 15s-15-6.716-15-15 6.716-15 15-15 15 6.715 15 15zm-145-55c-8.284 0-15 6.716-15 15s6.716 15 15 15 15-6.716 15-15-6.716-15-15-15zm70 20c-8.284 0-15 6.716-15 15s6.716 15 15 15 15-6.716 15-15-6.716-15-15-15z" fill="#463b83"/><path d="m432.762 328.496h-168.172l-13.623-133.518 243.118-100.391c3.788-1.564 7.745 1.842 6.762 5.821l-53.524 216.686c-1.654 6.697-7.663 11.402-14.561 11.402z" fill="#fd4fb6"/><path d="m210.251 100.872c-1.001-4.063 3.134-7.485 6.938-5.741l217.849 99.847-47.347 133.518h-121.374z" fill="#f02399"/><path d="m247.586 109.063 54.049 219.433h-35.318l-56.067-227.624c-1.001-4.063 3.134-7.484 6.938-5.741z" fill="#d80d80"/><path d="m473.929 209.387h-236.95l-6.997-28.408h250.964z" fill="#463b83"/><path d="m423.322 88.822c-5.858 5.858-13.772 7.441-17.678 3.536s-2.322-11.82 3.536-17.678 13.772-7.441 17.678-3.536 2.322 11.82-3.536 17.678zm-100.967-12.18c-3.905-3.905-11.82-2.322-17.678 3.536s-7.441 13.772-3.536 17.678 11.82 2.322 17.678-3.536c5.859-5.858 7.442-13.772 3.536-17.678z" fill="#fd4fb6"/><path d="m373.322 94.68c5.858 5.858 7.441 13.772 3.536 17.678s-11.82 2.322-17.678-3.536-7.441-13.772-3.536-17.678 11.82-2.322 17.678 3.536z" fill="#fded32"/><path d="m399 329.5c0 8.284-6.716 15-15 15s-15-6.716-15-15 6.716-15 15-15 15 6.716 15 15zm-55 25c-8.284 0-15 6.716-15 15s6.716 15 15 15 15-6.716 15-15-6.716-15-15-15zm65 30c-5.523 0-10 4.477-10 10s4.477 10 10 10 10-4.477 10-10-4.477-10-10-10z" fill="#463b83"/><path d="m265.356 180.979 6.997 28.408h-35.374l-6.997-28.408zm135.065-5.991c-1.573-5.06-5.334-8.409-9.514-8.417-.022 0-.045 0-.067 0-15.028 0-28.172 10.534-35.344 26.258-7.172-15.724-20.316-26.258-35.344-26.258-.022 0-.045 0-.068 0-4.18.009-7.942 3.357-9.514 8.417-1.937 6.234-3.004 13.052-3.004 20.194 0 7.143 1.067 13.96 3.004 20.194 1.573 5.061 5.334 8.409 9.514 8.418h.068c15.028 0 28.172-10.534 35.344-26.258 7.172 15.725 20.317 26.258 35.344 26.258h.067c4.18-.009 7.942-3.357 9.514-8.418 1.937-6.234 3.004-13.051 3.004-20.194.001-7.142-1.067-13.959-3.004-20.194z" fill="#003278"/><path d="m356.356 203.489h-1.721c-4.294 0-7.776-3.481-7.776-7.776v-1.721c0-4.294 3.481-7.776 7.776-7.776h1.721c4.294 0 7.776 3.481 7.776 7.776v1.721c0 4.295-3.482 7.776-7.776 7.776z" fill="#54469b"/><path d="m183.609 295.841h-18.939v-179.917h18.939z" fill="#f19b0b"/><path d="m258.167 96.335-49.252 28.644c-.749.436-1.373 1.059-1.809 1.809l-28.644 49.252c-1.928 3.315-6.716 3.315-8.644 0l-28.644-49.252c-.436-.75-1.059-1.373-1.808-1.809l-49.253-28.644c-3.315-1.928-3.315-6.716 0-8.644l49.252-28.644c.749-.436 1.373-1.059 1.808-1.809l28.644-49.252c1.928-3.315 6.716-3.315 8.644 0l28.644 49.252c.436.75 1.059 1.373 1.809 1.809l49.252 28.644c3.316 1.928 3.316 6.717.001 8.644z" fill="#f5c02c"/><path d="m207.771 125.644-33.631-33.631h86.513c0 1.679-.829 3.358-2.486 4.322l-1.124.653zm-67.263 0 22.506 38.699 6.803 11.697c.964 1.658 2.643 2.486 4.322 2.486v-86.513zm-50.399-37.951c-1.655.964-2.483 2.643-2.483 4.32h86.513l-33.631-33.631z" fill="#fded32"/><path d="m207.771 58.383-33.631 33.63v-86.513c1.679 0 3.358.828 4.322 2.485z" fill="#fdf385"/><path d="m311.445 302.84c0 32.22-61.474 58.34-137.305 58.34s-137.306-26.12-137.306-58.34 61.474-58.34 137.306-58.34 137.305 26.12 137.305 58.34z" fill="#a62b2b"/><path d="m311.445 302.84c0 26.915-42.895 49.572-101.223 56.304-58.327-6.732-101.222-29.39-101.222-56.304s42.895-49.572 101.222-56.304c58.328 6.732 101.223 29.389 101.223 56.304z" fill="#c64b1a"/><path d="m229 309.5c0 8.284-6.716 15-15 15s-15-6.716-15-15 6.716-15 15-15 15 6.716 15 15zm-145-55c-8.284 0-15 6.716-15 15s6.716 15 15 15 15-6.716 15-15-6.716-15-15-15zm70 20c-8.284 0-15 6.716-15 15s6.716 15 15 15 15-6.716 15-15-6.716-15-15-15z" fill="#a62b2b"/><path d="m319.492 276.078-53.991 218.577c-6.76.56-13.597.846-20.501.846-65.826 0-125.589-25.96-169.609-68.201l-5.78-56.65 243.118-100.392c3.788-1.565 7.746 1.841 6.763 5.82z" fill="#fded32"/><path d="m210.275 493.058c-58.248-8.264-109.903-37.014-147.44-78.723l-33.94-137.792c-1.001-4.063 3.134-7.484 6.938-5.741l217.849 99.847z" fill="#f5c02c"/><path d="m107.803 453.512c-16.544-11.202-31.645-24.374-44.968-39.177l-33.94-137.792c-1.001-4.063 3.134-7.484 6.938-5.741l30.397 13.932z" fill="#f19b0b"/><path d="m292.573 385.057h-236.95l-6.997-28.408h250.964z" fill="#f52c2c"/><path d="m83.944 356.649 7.026 28.408h-35.347l-6.997-28.408zm135.121-5.99c-1.572-5.06-5.334-8.409-9.514-8.417-.022 0-.045 0-.067 0-15.028 0-28.172 10.534-35.344 26.258-7.172-15.724-20.317-26.258-35.344-26.258-.022 0-.045 0-.067 0-4.18.009-7.942 3.357-9.514 8.417-1.937 6.234-3.004 13.052-3.004 20.194 0 7.143 1.067 13.96 3.004 20.194 1.572 5.06 5.334 8.409 9.514 8.418h.068c15.028 0 28.172-10.534 35.344-26.258 7.172 15.725 20.317 26.258 35.344 26.258h.067c4.18-.009 7.942-3.358 9.514-8.418 1.937-6.234 3.004-13.051 3.004-20.194s-1.067-13.96-3.005-20.194z" fill="#c92c2c"/><path d="m175 379.16h-1.721c-4.294 0-7.776-3.481-7.776-7.776v-1.721c0-4.294 3.481-7.776 7.776-7.776h1.721c4.294 0 7.776 3.481 7.776 7.776v1.721c0 4.295-3.482 7.776-7.776 7.776z" fill="#fd4343"/><path d="m231.445 246.835c0 15.279-25.657 7.665-57.305 7.665s-57.305 7.614-57.305-7.665 25.657-27.665 57.305-27.665 57.305 12.387 57.305 27.665z" fill="#fff5f5"/><path d="m155.349 255.213c-22.42 1.463-38.515 3.723-38.515-8.378 0-15.279 25.656-27.665 57.305-27.665 5.583 0 10.98.386 16.083 1.104-23.82 3.357-41.222 13.978-41.222 26.561 0 4.566 2.291 7.087 6.349 8.378z" fill="#e3f0fb"/></g></svg>