<?xml version="1.0" encoding="iso-8859-1"?>
<!-- Generator: Adobe Illustrator 19.0.0, SVG Export Plug-In . SVG Version: 6.00 Build 0)  -->
<svg version="1.1" id="Capa_1" xmlns="http://www.w3.org/2000/svg" xmlns:xlink="http://www.w3.org/1999/xlink" x="0px" y="0px"
	 viewBox="0 0 468.114 468.114" style="enable-background:new 0 0 468.114 468.114;" xml:space="preserve">
<g>
	<path style="fill:#D4E1F4;" d="M334.106,184.947c-19.331-1.567-36.571-9.927-50.155-22.988l45.453-55.902h-67.918
		c0-3.657,0.522-6.792,1.045-10.449h-57.992l15.151,130.09l0,0l0,0c31.347,0,126.433,0,126.433,0l-20.898,228.31l25.078-269.584
		c-3.135,0.522-6.792,0.522-10.449,0.522C337.763,184.947,335.673,184.947,334.106,184.947z"/>
	<path style="fill:#D4E1F4;" d="M187.82,225.698l-15.151-130.09H97.437c-4.18,0-8.359,2.09-11.494,5.224s-4.18,7.837-4.18,12.016
		l31.347,341.159l-20.898-228.31L187.82,225.698L187.82,225.698z"/>
</g>
<path style="fill:#00BBD3;" d="M417.698,107.102c0-42.841-34.482-77.845-77.845-77.845c-39.184,0-71.576,28.735-77.322,66.351
	c-0.522,3.657-1.045,6.792-1.045,10.449h67.918l-45.453,55.902c13.584,13.061,30.824,21.42,50.155,22.988c1.567,0,3.657,0,5.747,0
	c3.657,0,6.792-0.522,10.449-0.522C388.441,179.2,417.698,146.286,417.698,107.102z"/>
<path style="fill:#4DCFE0;" d="M219.69,225.698l17.241,150.988c1.045,8.359-5.224,16.196-13.584,17.241c-1.045,0-1.567,0-2.09,0
	c-7.837,0-14.629-5.747-15.673-14.106L187.82,225.698H92.212l20.898,228.31c0.522,7.837,7.314,14.106,15.673,14.106h180.767
	c7.837,0,14.629-6.269,15.673-14.106l20.898-228.31C346.122,225.698,251.037,225.698,219.69,225.698z"/>
<path style="fill:#00BBD3;" d="M198.269,225.698h-9.927h-0.522l17.763,154.122c1.045,8.359,7.837,14.106,15.673,14.106
	c0.522,0,1.045,0,2.09,0c8.359-1.045,14.629-8.882,13.584-17.241L219.69,225.698l0,0l0,0l0,0
	C214.465,225.698,198.269,225.698,198.269,225.698z"/>
<path style="fill:#3A2C51;" d="M188.343,225.698h9.927c0,0,16.196,0,21.42,0l0,0l-15.151-130.09l-9.404-81.502
	C194.09,5.747,187.298,0,179.461,0H66.09c-8.882,0-15.673,6.792-15.673,15.673s6.792,15.673,15.673,15.673h99.265l7.314,64.261
	L188.343,225.698L188.343,225.698z"/>
<g>
</g>
<g>
</g>
<g>
</g>
<g>
</g>
<g>
</g>
<g>
</g>
<g>
</g>
<g>
</g>
<g>
</g>
<g>
</g>
<g>
</g>
<g>
</g>
<g>
</g>
<g>
</g>
<g>
</g>
</svg>
